<svg width="808" height="653" viewBox="0 0 808 653" fill="none" xmlns="http://www.w3.org/2000/svg">
<path d="M526.331 625.438V313.26C526.985 253.795 547.515 237.926 614.905 236.454H693.568C766.66 240.007 783.556 222.773 784 168.32C784 168.32 784 32.0511 784 26.4777C784 20.9042 669.412 26.4751 565.972 26.4777C462.532 26.4802 303.348 172.659 303.347 313.26C303.346 453.861 303.347 628.535 303.347 628.535" stroke="white" stroke-width="47" stroke-linecap="round"/>
<path d="M302.802 320.076C302.802 295.276 263.842 245.06 218.275 245.06C172.709 245.06 116.025 245.06 116.025 245.06C116.025 245.06 24 245.06 24 160.121C24 75.1816 24 36.1218 24 31.1619C24 26.202 251.662 31.1619 268.037 31.1619C284.411 31.1619 364.01 50.8065 410.505 100.601" stroke="white" stroke-width="47" stroke-linecap="square"/>
</svg>
