<svg width="200" height="215" viewBox="0 0 200 215" fill="none" xmlns="http://www.w3.org/2000/svg">
<path d="M153.832 0H17.442C12.8177 0.00520696 8.38427 1.84452 5.11438 5.11442C1.84449 8.38431 0.00519543 12.8177 0 17.4421V177.592C0.0051964 182.216 1.84449 186.649 5.11438 189.919C8.38427 193.189 12.8177 195.029 17.442 195.034H153.832C158.456 195.029 162.889 193.189 166.159 189.919C169.429 186.649 171.268 182.216 171.274 177.592V17.4421C171.268 12.8177 169.429 8.38431 166.159 5.11442C162.889 1.84452 158.456 0.00520696 153.832 0Z" fill="#E6E6E6"/>
<path d="M153.831 5.02246H17.4412C14.1481 5.02615 10.991 6.33596 8.66241 8.66453C6.33384 10.9931 5.02402 14.1502 5.02032 17.4433V177.593C5.02403 180.886 6.33384 184.043 8.66241 186.372C10.991 188.7 14.1481 190.01 17.4412 190.014H153.831C157.124 190.01 160.281 188.7 162.61 186.372C164.939 184.043 166.248 180.886 166.252 177.593V17.4433C166.248 14.1503 164.939 10.9931 162.61 8.66458C160.281 6.33602 157.124 5.02619 153.831 5.02246Z" fill="white"/>
<path d="M168.16 214.518C185.745 214.518 200 200.263 200 182.678C200 165.094 185.745 150.839 168.16 150.839C150.576 150.839 136.32 165.094 136.32 182.678C136.32 200.263 150.576 214.518 168.16 214.518Z" fill="#6C63FF"/>
<path d="M183.389 178.526H172.314V167.452C172.314 166.35 171.877 165.294 171.098 164.515C170.319 163.736 169.263 163.299 168.161 163.299C167.06 163.299 166.003 163.736 165.224 164.515C164.446 165.294 164.008 166.35 164.008 167.452V178.526H152.933C151.832 178.526 150.776 178.964 149.997 179.743C149.218 180.522 148.78 181.578 148.78 182.679C148.78 183.781 149.218 184.837 149.997 185.616C150.776 186.395 151.832 186.832 152.933 186.832H164.008V197.907C164.008 199.009 164.446 200.065 165.224 200.844C166.003 201.623 167.06 202.06 168.161 202.06C169.263 202.06 170.319 201.623 171.098 200.844C171.877 200.065 172.314 199.009 172.314 197.907V186.832H183.389C184.49 186.832 185.547 186.395 186.325 185.616C187.104 184.837 187.542 183.781 187.542 182.679C187.542 181.578 187.104 180.522 186.325 179.743C185.547 178.964 184.49 178.526 183.389 178.526Z" fill="white"/>
<path d="M133.305 93.0234H64.3338C63.9521 93.0238 63.5741 92.949 63.2213 92.8033C62.8686 92.6575 62.548 92.4436 62.2779 92.1738C62.0079 91.9041 61.7936 91.5837 61.6474 91.2311C61.5013 90.8785 61.426 90.5006 61.426 90.1189C61.426 89.7371 61.5013 89.3592 61.6474 89.0066C61.7936 88.654 62.0079 88.3336 62.2779 88.0639C62.548 87.7941 62.8686 87.5802 63.2213 87.4345C63.5741 87.2887 63.9521 87.2139 64.3338 87.2143H133.305C134.075 87.2152 134.813 87.5215 135.357 88.0662C135.901 88.6108 136.207 89.3491 136.207 90.1189C136.207 90.8886 135.901 91.6269 135.357 92.1716C134.813 92.7162 134.075 93.0226 133.305 93.0234Z" fill="#E6E6E6"/>
<path d="M145.287 102.825H64.3338C63.9521 102.825 63.5741 102.751 63.2213 102.605C62.8686 102.459 62.548 102.245 62.2779 101.975C62.0079 101.706 61.7936 101.385 61.6474 101.033C61.5013 100.68 61.426 100.302 61.426 99.9204C61.426 99.5387 61.5013 99.1608 61.6474 98.8081C61.7936 98.4555 62.0079 98.1352 62.2779 97.8654C62.548 97.5957 62.8686 97.3818 63.2213 97.236C63.5741 97.0903 63.9521 97.0154 64.3338 97.0159H145.287C146.057 97.0159 146.796 97.3219 147.34 97.8666C147.885 98.4113 148.191 99.1501 148.191 99.9204C148.191 100.691 147.885 101.43 147.34 101.974C146.796 102.519 146.057 102.825 145.287 102.825Z" fill="#E6E6E6"/>
<path d="M133.305 136.955H64.3338C63.9521 136.955 63.5741 136.88 63.2213 136.734C62.8686 136.589 62.548 136.375 62.2779 136.105C62.0079 135.835 61.7936 135.515 61.6474 135.162C61.5013 134.81 61.426 134.432 61.426 134.05C61.426 133.668 61.5013 133.29 61.6474 132.938C61.7936 132.585 62.0079 132.265 62.2779 131.995C62.548 131.725 62.8686 131.511 63.2213 131.366C63.5741 131.22 63.9521 131.145 64.3338 131.145H133.305C134.076 131.145 134.814 131.451 135.359 131.996C135.904 132.541 136.21 133.28 136.21 134.05C136.21 134.82 135.904 135.559 135.359 136.104C134.814 136.649 134.076 136.955 133.305 136.955Z" fill="#E6E6E6"/>
<path d="M145.287 146.759H64.3338C63.9521 146.759 63.5741 146.685 63.2213 146.539C62.8686 146.393 62.548 146.179 62.2779 145.909C62.0078 145.64 61.7936 145.319 61.6474 144.967C61.5013 144.614 61.426 144.236 61.426 143.854C61.426 143.473 61.5013 143.095 61.6474 142.742C61.7936 142.39 62.0078 142.069 62.2779 141.799C62.548 141.53 62.8686 141.316 63.2213 141.17C63.5741 141.024 63.9521 140.949 64.3338 140.95H145.287C145.668 140.949 146.046 141.024 146.399 141.17C146.752 141.316 147.072 141.53 147.342 141.799C147.613 142.069 147.827 142.39 147.973 142.742C148.119 143.095 148.194 143.473 148.194 143.854C148.194 144.236 148.119 144.614 147.973 144.967C147.827 145.319 147.613 145.64 147.342 145.909C147.072 146.179 146.752 146.393 146.399 146.539C146.046 146.685 145.668 146.759 145.287 146.759Z" fill="#E6E6E6"/>
<path d="M48.8843 107.276H24.4759C24.1067 107.276 23.7527 107.129 23.4916 106.868C23.2305 106.607 23.0836 106.253 23.0832 105.883V84.1567C23.0836 83.7874 23.2305 83.4334 23.4916 83.1723C23.7527 82.9112 24.1067 82.7643 24.4759 82.7639H48.8843C49.2535 82.7643 49.6075 82.9112 49.8687 83.1723C50.1298 83.4334 50.2766 83.7874 50.277 84.1567V105.883C50.2766 106.253 50.1298 106.607 49.8687 106.868C49.6075 107.129 49.2535 107.276 48.8843 107.276Z" fill="#E6E6E6"/>
<path d="M48.8843 151.207H24.4759C24.1067 151.207 23.7527 151.06 23.4916 150.799C23.2305 150.538 23.0836 150.184 23.0832 149.814V128.088C23.0836 127.718 23.2305 127.364 23.4916 127.103C23.7527 126.842 24.1067 126.695 24.4759 126.695H48.8843C49.2535 126.695 49.6075 126.842 49.8687 127.103C50.1298 127.364 50.2766 127.718 50.277 128.088V149.814C50.2766 150.184 50.1298 150.538 49.8687 150.799C49.6075 151.06 49.2535 151.207 48.8843 151.207Z" fill="#E6E6E6"/>
<path d="M115.005 51.1138H64.1554C63.3851 51.1138 62.6463 50.8078 62.1016 50.2631C61.5569 49.7184 61.2509 48.9796 61.2509 48.2092C61.2509 47.4389 61.5569 46.7001 62.1016 46.1554C62.6463 45.6107 63.3851 45.3047 64.1554 45.3047H115.005C115.775 45.3047 116.514 45.6107 117.059 46.1554C117.604 46.7001 117.91 47.4389 117.91 48.2092C117.91 48.9796 117.604 49.7184 117.059 50.2631C116.514 50.8078 115.775 51.1138 115.005 51.1138Z" fill="#CCCCCC"/>
<path d="M126.987 63.4349H64.1554C63.774 63.4349 63.3963 63.3598 63.0439 63.2138C62.6915 63.0679 62.3713 62.8539 62.1016 62.5842C61.8319 62.3145 61.618 61.9943 61.472 61.6419C61.326 61.2895 61.2509 60.9118 61.2509 60.5304C61.2509 60.1489 61.326 59.7712 61.472 59.4188C61.618 59.0664 61.8319 58.7462 62.1016 58.4765C62.3713 58.2068 62.6915 57.9929 63.0439 57.8469C63.3963 57.7009 63.774 57.6258 64.1554 57.6258H126.987C127.757 57.6258 128.496 57.9318 129.04 58.4765C129.585 59.0212 129.891 59.76 129.891 60.5304C129.891 61.3007 129.585 62.0395 129.04 62.5842C128.496 63.1289 127.757 63.4349 126.987 63.4349Z" fill="#CCCCCC"/>
<path d="M49.6167 63.4249H23.9589C23.7568 63.4246 23.563 63.3327 23.4201 63.1693C23.2772 63.0058 23.1968 62.7842 23.1966 62.5531V39.6513C23.1968 39.4202 23.2772 39.1986 23.4201 39.0352C23.563 38.8717 23.7568 38.7798 23.9589 38.7795H49.6167C49.8188 38.7798 50.0126 38.8717 50.1555 39.0352C50.2984 39.1986 50.3788 39.4202 50.379 39.6513V62.5531C50.3788 62.7842 50.2984 63.0058 50.1555 63.1693C50.0126 63.3327 49.8188 63.4246 49.6167 63.4249Z" fill="#6C63FF"/>
</svg>
