<svg width="280" height="74" viewBox="0 0 280 74" fill="none" xmlns="http://www.w3.org/2000/svg">
<path d="M21.312 72V9.12H0.96V2.20799H50.976V9.12H30.528V72H21.312ZM79.1948 72.96C74.9068 72.96 71.0028 71.968 67.4828 69.984C63.9948 68 61.2108 65.088 59.1308 61.248C57.0828 57.408 56.0588 52.704 56.0588 47.136C56.0588 42.752 56.7148 38.944 58.0268 35.712C59.3708 32.48 61.1468 29.808 63.3548 27.696C65.5948 25.584 68.0908 24.016 70.8428 22.992C73.5948 21.936 76.3788 21.408 79.1948 21.408C84.0908 21.408 88.2668 22.56 91.7228 24.864C95.1788 27.136 97.8028 30.224 99.5948 34.128C101.419 38 102.331 42.336 102.331 47.136C102.331 51.296 101.707 54.992 100.459 58.224C99.2428 61.424 97.5628 64.128 95.4188 66.336C93.2748 68.512 90.8108 70.16 88.0268 71.28C85.2428 72.4 82.2988 72.96 79.1948 72.96ZM79.1948 66.048C82.2988 66.048 84.8588 65.184 86.8748 63.456C88.8908 61.728 90.3788 59.44 91.3388 56.592C92.3308 53.712 92.8268 50.56 92.8268 47.136C92.8268 42.848 92.1868 39.312 90.9068 36.528C89.6588 33.744 87.9948 31.68 85.9148 30.336C83.8668 28.992 81.6268 28.32 79.1948 28.32C76.7628 28.32 74.5068 28.992 72.4268 30.336C70.3788 31.68 68.7148 33.744 67.4348 36.528C66.1868 39.312 65.5628 42.848 65.5628 47.136C65.5628 52.704 66.7468 57.248 69.1148 60.768C71.4828 64.288 74.8428 66.048 79.1948 66.048ZM133.57 72.96C129.282 72.96 125.378 71.968 121.858 69.984C118.37 68 115.586 65.088 113.506 61.248C111.458 57.408 110.434 52.704 110.434 47.136C110.434 42.752 111.09 38.944 112.402 35.712C113.746 32.48 115.522 29.808 117.73 27.696C119.97 25.584 122.466 24.016 125.218 22.992C127.97 21.936 130.754 21.408 133.57 21.408C138.466 21.408 142.642 22.56 146.098 24.864C149.554 27.136 152.178 30.224 153.97 34.128C155.794 38 156.706 42.336 156.706 47.136C156.706 51.296 156.082 54.992 154.834 58.224C153.618 61.424 151.938 64.128 149.794 66.336C147.65 68.512 145.186 70.16 142.402 71.28C139.618 72.4 136.674 72.96 133.57 72.96ZM133.57 66.048C136.674 66.048 139.234 65.184 141.25 63.456C143.266 61.728 144.754 59.44 145.714 56.592C146.706 53.712 147.202 50.56 147.202 47.136C147.202 42.848 146.562 39.312 145.282 36.528C144.034 33.744 142.37 31.68 140.29 30.336C138.242 28.992 136.002 28.32 133.57 28.32C131.138 28.32 128.882 28.992 126.802 30.336C124.754 31.68 123.09 33.744 121.81 36.528C120.562 39.312 119.938 42.848 119.938 47.136C119.938 52.704 121.122 57.248 123.49 60.768C125.858 64.288 129.218 66.048 133.57 66.048ZM195.913 73.152C194.473 73.152 193.081 73.104 191.737 73.008C190.393 72.944 188.969 72.784 187.465 72.528C185.993 72.304 184.329 71.968 182.473 71.52C183.081 70.4 183.801 69.408 184.633 68.544C185.497 67.648 186.489 66.976 187.609 66.528C188.761 66.08 190.057 65.92 191.497 66.048C192.521 66.144 193.305 66.208 193.849 66.24C194.393 66.24 195.049 66.24 195.817 66.24C198.889 66.24 201.753 65.472 204.409 63.936C207.065 62.4 209.385 60.288 211.369 57.6C213.353 54.912 214.905 51.808 216.025 48.288C217.145 44.736 217.705 40.96 217.705 36.96C217.705 30.784 216.649 25.536 214.537 21.216C212.457 16.896 209.321 13.616 205.129 11.376C200.937 9.104 195.689 7.96799 189.385 7.96799C187.465 7.96799 185.577 8.032 183.721 8.16C181.865 8.288 180.169 8.448 178.633 8.64V72H169.513V3.264C172.553 2.528 175.929 1.968 179.641 1.58399C183.353 1.168 186.601 0.959999 189.385 0.959999C197.513 0.959999 204.409 2.4 210.073 5.27999C215.769 8.16 220.089 12.288 223.033 17.664C226.009 23.04 227.497 29.472 227.497 36.96C227.497 42.176 226.665 46.992 225.001 51.408C223.337 55.824 221.033 59.664 218.089 62.928C215.177 66.16 211.817 68.672 208.009 70.464C204.233 72.256 200.201 73.152 195.913 73.152ZM256.382 72.96C252.094 72.96 248.19 71.968 244.67 69.984C241.182 68 238.398 65.088 236.318 61.248C234.27 57.408 233.246 52.704 233.246 47.136C233.246 42.752 233.902 38.944 235.214 35.712C236.558 32.48 238.334 29.808 240.542 27.696C242.782 25.584 245.278 24.016 248.03 22.992C250.782 21.936 253.566 21.408 256.382 21.408C261.278 21.408 265.454 22.56 268.91 24.864C272.366 27.136 274.99 30.224 276.782 34.128C278.606 38 279.518 42.336 279.518 47.136C279.518 51.296 278.894 54.992 277.646 58.224C276.43 61.424 274.75 64.128 272.606 66.336C270.462 68.512 267.998 70.16 265.214 71.28C262.43 72.4 259.486 72.96 256.382 72.96ZM256.382 66.048C259.486 66.048 262.046 65.184 264.062 63.456C266.078 61.728 267.566 59.44 268.526 56.592C269.518 53.712 270.014 50.56 270.014 47.136C270.014 42.848 269.374 39.312 268.094 36.528C266.846 33.744 265.182 31.68 263.102 30.336C261.054 28.992 258.814 28.32 256.382 28.32C253.95 28.32 251.694 28.992 249.614 30.336C247.566 31.68 245.902 33.744 244.622 36.528C243.374 39.312 242.75 42.848 242.75 47.136C242.75 52.704 243.934 57.248 246.302 60.768C248.67 64.288 252.03 66.048 256.382 66.048Z" fill="#6C63FF"/>
</svg>
